Coordinates
version=1
nRows=15
nColumns=42
inDegrees=yes

Units are S.I. units (second, meters, Newtons, ...)
If the header above contains a line with 'inDegrees', this indicates whether rotational values are in degrees (yes) or radians (no).

endheader
time	pelvis_tilt	pelvis_list	pelvis_rotation	pelvis_tx	pelvis_ty	pelvis_tz	hip_flexion_r	hip_adduction_r	hip_rotation_r	knee_angle_r	knee_adduction_r	knee_angle_r_beta	ankle_angle_r	subtalar_angle_r	mtp_angle_r	hip_flexion_l	hip_adduction_l	hip_rotation_l	knee_angle_l	knee_adduction_l	knee_angle_l_beta	ankle_angle_l	subtalar_angle_l	mtp_angle_l	lumbar_extension	lumbar_bending	lumbar_rotation	arm_flex_r	arm_add_r	arm_rot_r	elbow_flex_r	pro_sup_r	wrist_flex_r	wrist_dev_r	arm_flex_l	arm_add_l	arm_rot_l	elbow_flex_l	pro_sup_l	wrist_flex_l	wrist_dev_l
      1.54000000	      4.78901048	      0.33986425	    -10.71790606	     -0.26345873	      0.98978780	      0.21272218	    -19.20744434	     -6.57327702	      7.07750611	     31.18786658	      8.13160646	      0.54433096	     -7.11859332	     -6.76437657	     -7.54849164	     19.22792712	     -8.75704273	    -10.52258604	     19.68826046	     11.77132849	      0.34362497	     -7.61222241	    -13.94621230	     -7.54849164	    -14.75661075	     -6.93595068	      9.39258179	      6.43277170	    -17.40026726	    -14.41170766	     42.26756539	     90.00000001	      0.00000000	      0.00000000	    -15.24653427	     -8.79959595	    -19.93228098	     10.73086974	     90.00000001	      0.00000000	      0.00000000
      1.55000000	      5.27391930	      1.12101112	    -10.72913285	     -0.24684455	      0.99227474	      0.21074303	    -18.50607408	     -7.71854580	      6.05615314	     34.09444806	      8.07686972	      0.59506038	    -10.66213612	     -7.30521982	     -7.54788562	     18.17215239	     -7.48076702	    -10.53364632	     20.25097130	     11.60467928	      0.35344613	     -7.17209848	    -14.07614154	     -7.54788562	    -15.07991700	     -7.86076035	      8.96397138	      5.88087237	    -17.15844359	    -14.29514128	     41.92720504	     90.00000001	      0.00000000	      0.00000000	    -14.58447439	     -8.96473811	    -19.99839732	     10.88363953	     90.00000001	      0.00000000	      0.00000000
      1.56000000	      5.64452340	      1.74870494	    -10.63112855	     -0.23075664	      0.99476738	      0.20873508	    -17.49704936	     -8.63143801	      4.96359464	     37.21241347	      7.87377345	      0.64947914	    -14.39558540	     -8.18322268	     -7.54724511	     17.20245425	     -6.32094056	    -10.43833444	     20.69939643	     11.41330423	      0.36127262	     -6.64123441	    -14.03237873	     -7.54724511	    -15.38247659	     -8.57061925	      8.41885424	      5.37910892	    -16.90447272	    -14.09751958	     41.50528695	     90.00000001	      0.00000000	      0.00000000	    -13.79542126	     -9.16278516	    -20.06736189	     11.04957803	     90.00000001	      0.00000000	      0.00000000
      1.57000000	      5.92510747	      2.14895340	    -10.53799945	     -0.21526143	      0.99718522	      0.20684355	    -16.22216689	     -9.26882593	      4.14044741	     40.47742834	      7.61525156	      0.70646440	    -17.85761763	     -9.03939539	     -7.54670513	     16.25004568	     -5.45125804	    -10.32150965	     21.04038165	     11.31581661	      0.36722394	     -5.89921499	    -13.94949213	     -7.54670513	    -15.68371511	     -9.00234573	      7.89599472	      4.96950836	    -16.71763257	    -13.86062161	     41.06714999	     90.00000001	      0.00000000	      0.00000000	    -12.95499368	     -9.27910244	    -20.12325115	     11.27428738	     90.00000001	      0.00000000	      0.00000000
      1.58000000	      6.03372947	      2.37952076	    -10.27422626	     -0.20029791	      0.99945001	      0.20502406	    -14.65059372	     -9.59250758	      3.07030618	     43.81094268	      7.06973510	      0.76464520	    -21.49558177	    -10.66184769	     -7.54572973	     15.52863877	     -4.74499978	    -10.15068024	     21.44861426	     11.10471066	      0.37434894	     -5.11652261	    -13.55454011	     -7.54572973	    -15.89348487	     -9.19478463	      7.20219578	      4.60920473	    -16.47738519	    -13.42064203	     40.43830001	     90.00000001	      0.00000000	      0.00000000	    -12.03126813	     -9.47603350	    -20.29202328	     11.50461297	     90.00000001	      0.00000000	      0.00000000
      1.59000000	      6.08462427	      2.36902352	    -10.12817134	     -0.18575118	      1.00166101	      0.20345807	    -12.93424138	     -9.65966548	      2.79759025	     47.07068247	      6.84653482	      0.82153839	    -24.71764751	    -12.88305349	     -7.54270884	     14.78250292	     -4.40313253	    -10.31705788	     21.83574637	     10.92268697	      0.38110567	     -3.91394877	    -12.67190105	     -7.54270884	    -16.07404065	     -9.12752772	      6.66747269	      4.40652569	    -16.33279363	    -12.80991559	     39.64931627	     90.00000001	      0.00000000	      0.00000000	    -11.02759961	     -9.58603961	    -20.79301578	     11.71844859	     90.00000001	      0.00000000	      0.00000000
      1.60000000	      6.00874026	      2.43128883	    -10.04955450	     -0.17157489	      1.00362088	      0.20194083	    -10.87894429	     -9.80853322	      2.08211719	     50.43006500	      6.16556349	      0.88017068	    -26.39865776	    -13.24999175	     -7.54177089	     14.07554869	     -4.00202056	    -10.27635485	     21.95822681	     10.82592079	      0.38324336	     -2.89913851	    -12.34149970	     -7.54177089	    -16.12855913	     -9.11615901	      6.25143285	      4.00054044	    -16.13594752	    -12.51052788	     39.21244021	     90.00000001	      0.00000000	      0.00000000	    -10.08423335	     -9.73744052	    -20.78798201	     12.23724449	     90.00000001	      0.00000000	      0.00000000
      1.61000000	      5.90250857	      2.29082018	     -9.94161874	     -0.15763619	      1.00558292	      0.20065313	     -8.79346009	     -9.66287090	      1.42442559	     53.57766042	      5.42232914	      0.93510658	    -27.86371590	    -14.38488787	     -7.54026397	     13.36914348	     -3.87719264	    -10.32856053	     22.10113450	     10.73807117	      0.38573757	     -1.98129877	    -11.79408169	     -7.54026397	    -16.17621538	     -8.87750915	      5.77134305	      3.82387803	    -15.93075355	    -11.96255454	     38.42430806	     90.00000001	      0.00000000	      0.00000000	     -9.07758453	     -9.91320395	    -20.84130169	     12.57951584	     90.00000001	      0.00000000	      0.00000000
      1.62000000	      5.75833700	      2.17353979	    -10.00389172	     -0.14382140	      1.00746801	      0.19951451	     -6.60569791	     -9.57931741	      1.21620854	     56.54492787	      4.93750033	      0.98689517	    -27.93035631	    -14.93178610	     -7.53955247	     12.53621714	     -3.77538542	    -10.40308445	     21.93046102	     10.76972451	      0.38275875	     -0.99291158	    -11.42599364	     -7.53955247	    -16.15361798	     -8.67152911	      5.53793949	      3.40011377	    -15.74141965	    -11.67505914	     37.90484328	     90.00000001	      0.00000000	      0.00000000	     -8.11561958	    -10.07239819	    -20.79846486	     13.14921506	     90.00000001	      0.00000000	      0.00000000
      1.63000000	      5.53565305	      2.00324111	     -9.95426957	     -0.13022231	      1.00925521	      0.19842532	     -4.33227535	     -9.37586847	      0.83231026	     59.29327896	      4.41666394	      1.03486294	    -27.84243133	    -15.90560211	     -7.53865341	     11.81558369	     -3.76046174	    -10.43228836	     21.81433048	     10.79197000	      0.38073189	     -0.12298741	    -10.91229976	     -7.53865341	    -16.06674011	     -8.37832652	      5.14326999	      3.19883024	    -15.53761385	    -11.24628316	     37.11984686	     90.00000001	      0.00000000	      0.00000000	     -7.07907283	    -10.26075334	    -20.74433338	     13.57808986	     90.00000001	      0.00000000	      0.00000000
      1.64000000	      5.32106705	      1.76567752	    -10.00083505	     -0.11660335	      1.01109331	      0.19755747	     -2.08916692	     -9.07242396	      0.59075192	     61.73576847	      3.94385172	      1.07749243	    -27.10930549	    -16.77513586	     -7.53759502	     10.95159521	     -3.87043561	    -10.58828780	     21.51446270	     10.88029193	      0.37549821	      0.75675108	    -10.30564844	     -7.53759502	    -15.94634645	     -8.01764730	      4.88022480	      3.00082022	    -15.29758042	    -10.83260322	     36.17719048	     90.00000001	      0.00000000	      0.00000000	     -6.05548902	    -10.49779083	    -20.71232729	     14.00543558	     90.00000001	      0.00000000	      0.00000000
      1.65000000	      5.15204418	      1.49224166	    -10.02651609	     -0.10306059	      1.01300624	      0.19672460	      0.06134767	     -8.70759236	      0.35675809	     63.84347685	      3.56389688	      1.11427888	    -25.78909128	    -17.34940741	     -7.53686902	      9.95777110	     -4.00086472	    -10.70790296	     21.04164353	     10.97859869	      0.36724596	      1.48603917	     -9.77986823	     -7.53686902	    -15.88553752	     -7.62084003	      4.67894783	      2.65432148	    -15.06743994	    -10.57587309	     35.45351222	     90.00000001	      0.00000000	      0.00000000	     -4.97389180	    -10.75885988	    -20.65970209	     14.57279436	     90.00000001	      0.00000000	      0.00000000
      1.66000000	      4.96630466	      1.19901686	     -9.99234554	     -0.08959076	      1.01486654	      0.19592253	      2.19161395	     -8.29022004	     -0.00867990	     65.65066531	      3.16286438	      1.14582027	    -24.24497818	    -17.70000501	     -7.53504711	      8.95580572	     -4.18715938	    -10.87783798	     20.52666786	     11.11552757	      0.35825794	      2.28103082	     -8.96731853	     -7.53504711	    -15.79845761	     -7.19217239	      4.36130063	      2.63570857	    -14.78887536	    -10.29974058	     33.99142106	     90.00000001	      0.00000000	      0.00000000	     -3.86212456	    -11.05375983	    -20.71720808	     14.97921572	     90.00000001	      0.00000000	      0.00000000
      1.67000000	      4.78671687	      0.90078940	     -9.88707179	     -0.07615553	      1.01672445	      0.19503513	      4.25061622	     -7.87966579	     -0.38318453	     67.11756933	      2.91638167	      1.17142257	    -22.53516796	    -17.99921310	     -7.53417301	      7.87957435	     -4.34919032	    -10.85863186	     19.82308913	     11.28516243	      0.34597817	      2.91705333	     -8.40317723	     -7.53417301	    -15.73358059	     -6.73133156	      4.04637634	      2.24568907	    -14.53887442	    -10.17663181	     33.31270286	     90.00000001	      0.00000000	      0.00000000	     -2.75697110	    -11.35468015	    -20.68899161	     15.62562119	     90.00000001	      0.00000000	      0.00000000
      1.68000000	      4.64469032	      0.56575487	     -9.76761631	     -0.06270684	      1.01857612	      0.19409733	      6.20526362	     -7.43245736	     -0.75931373	     68.22936894	      2.74728759	      1.19082713	    -20.98284582	    -18.31190721	     -7.53369538	      6.72461345	     -4.54588050	    -10.97645150	     19.06968152	     11.42863322	      0.33282873	      3.34733865	     -7.90441614	     -7.53369538	    -15.70540354	     -6.22051615	      3.79901253	      1.73130569	    -14.33260144	    -10.05043429	     32.70783748	     90.00000001	      0.00000000	      0.00000000	     -1.62224833	    -11.66465573	    -20.62917641	     16.33655646	     90.00000001	      0.00000000	      0.00000000
